<svg id="SvgjsSvg1006" width="573" height="352" xmlns="http://www.w3.org/2000/svg" version="1.1" xmlns:xlink="http://www.w3.org/1999/xlink" xmlns:svgjs="http://svgjs.com/svgjs"><defs id="SvgjsDefs1007"><marker id="SvgjsMarker1026" markerWidth="16" markerHeight="12" refX="16" refY="6" viewBox="0 0 16 12" orient="auto" markerUnits="userSpaceOnUse" stroke-dasharray="0,0"><path id="SvgjsPath1027" d="M0,2 L14,6 L0,11 L0,2" fill="#323232" stroke="#323232" stroke-width="2"></path></marker><marker id="SvgjsMarker1030" markerWidth="16" markerHeight="12" refX="16" refY="6" viewBox="0 0 16 12" orient="auto" markerUnits="userSpaceOnUse" stroke-dasharray="0,0"><path id="SvgjsPath1031" d="M0,2 L14,6 L0,11 L0,2" fill="#323232" stroke="#323232" stroke-width="2"></path></marker><marker id="SvgjsMarker1044" markerWidth="16" markerHeight="12" refX="16" refY="6" viewBox="0 0 16 12" orient="auto" markerUnits="userSpaceOnUse" stroke-dasharray="0,0"><path id="SvgjsPath1045" d="M0,2 L14,6 L0,11 L0,2" fill="#323232" stroke="#323232" stroke-width="2"></path></marker><marker id="SvgjsMarker1068" markerWidth="16" markerHeight="12" refX="16" refY="6" viewBox="0 0 16 12" orient="auto" markerUnits="userSpaceOnUse" stroke-dasharray="0,0"><path id="SvgjsPath1069" d="M0,2 L14,6 L0,11 L0,2" fill="#323232" stroke="#323232" stroke-width="2"></path></marker><marker id="SvgjsMarker1082" markerWidth="16" markerHeight="12" refX="16" refY="6" viewBox="0 0 16 12" orient="auto" markerUnits="userSpaceOnUse" stroke-dasharray="0,0"><path id="SvgjsPath1083" d="M0,2 L14,6 L0,11 L0,2" fill="#323232" stroke="#323232" stroke-width="2"></path></marker></defs><g id="SvgjsG1008" transform="translate(25,40)"><path id="SvgjsPath1009" d="M 16.666666666666668 0L 83.33333333333333 0C 105.55555555555556 0 105.55555555555556 50 83.33333333333333 50L 16.666666666666668 50C -5.555555555555556 50 -5.555555555555556 0 16.666666666666668 0Z" stroke="rgba(50,50,50,1)" stroke-width="2" fill-opacity="1" fill="#ffffff"></path><g id="SvgjsG1010"><text id="SvgjsText1011" font-family="微软雅黑" text-anchor="middle" font-size="13px" width="80px" fill="#323232" font-weight="400" align="middle" lineHeight="125%" anchor="middle" family="微软雅黑" size="13px" weight="400" font-style="" opacity="1" y="15.375" transform="rotate(0)"><tspan id="SvgjsTspan1012" dy="16" x="50"><tspan id="SvgjsTspan1013" style="text-decoration:;">开始</tspan></tspan></text></g></g><g id="SvgjsG1014" transform="translate(197,25)"><path id="SvgjsPath1015" d="M 0 40L 80.5 0L 161 40L 80.5 80L 0 40Z" stroke="rgba(50,50,50,1)" stroke-width="2" fill-opacity="1" fill="#ffffff"></path><g id="SvgjsG1016"><text id="SvgjsText1017" font-family="微软雅黑" text-anchor="middle" font-size="13px" width="141px" fill="#323232" font-weight="400" align="middle" lineHeight="125%" anchor="middle" family="微软雅黑" size="13px" weight="400" font-style="" opacity="1" y="14.375" transform="rotate(0)"><tspan id="SvgjsTspan1018" dy="16" x="80.5"><tspan id="SvgjsTspan1019" style="text-decoration:;">检查</tspan></tspan><tspan id="SvgjsTspan1020" dy="16" x="80.5"><tspan id="SvgjsTspan1021" style="text-decoration:;">D:/vc_packages</tspan></tspan><tspan id="SvgjsTspan1022" dy="16" x="80.5"><tspan id="SvgjsTspan1023" style="text-decoration:;">是否包含P包</tspan></tspan></text></g></g><g id="SvgjsG1024"><path id="SvgjsPath1025" d="M125 65L161 65L161 65L197 65" stroke="#323232" stroke-width="2" fill="none" marker-end="url(#SvgjsMarker1026)"></path></g><g id="SvgjsG1028"><path id="SvgjsPath1029" d="M358 65L403 65L403 65L448 65" stroke="#323232" stroke-width="2" fill="none" marker-end="url(#SvgjsMarker1030)"></path><rect id="SvgjsRect1032" width="13" height="16" x="396.5" y="57" fill="#ffffff"></rect><text id="SvgjsText1033" font-family="微软雅黑" text-anchor="middle" font-size="13px" width="13px" fill="#323232" font-weight="400" align="top" lineHeight="16px" anchor="middle" family="微软雅黑" size="13px" weight="400" font-style="" opacity="1" y="55.375" transform="rotate(0)"><tspan id="SvgjsTspan1034" dy="16" x="403"><tspan id="SvgjsTspan1035" style="text-decoration:;">是</tspan></tspan></text></g><g id="SvgjsG1036" transform="translate(448,40)"><path id="SvgjsPath1037" d="M 16.666666666666668 0L 83.33333333333333 0C 105.55555555555556 0 105.55555555555556 50 83.33333333333333 50L 16.666666666666668 50C -5.555555555555556 50 -5.555555555555556 0 16.666666666666668 0Z" stroke="rgba(50,50,50,1)" stroke-width="2" fill-opacity="1" fill="#ffffff"></path><g id="SvgjsG1038"><text id="SvgjsText1039" font-family="微软雅黑" text-anchor="middle" font-size="13px" width="80px" fill="#323232" font-weight="400" align="middle" lineHeight="125%" anchor="middle" family="微软雅黑" size="13px" weight="400" font-style="" opacity="1" y="15.375" transform="rotate(0)"><tspan id="SvgjsTspan1040" dy="16" x="50"><tspan id="SvgjsTspan1041" style="text-decoration:;">不需要还原</tspan></tspan></text></g></g><g id="SvgjsG1042"><path id="SvgjsPath1043" d="M277.5 105L277.5 133.5L277.5 133.5L277.5 162" stroke="#323232" stroke-width="2" fill="none" marker-end="url(#SvgjsMarker1044)"></path><rect id="SvgjsRect1046" width="13" height="16" x="271" y="125.5" fill="#ffffff"></rect><text id="SvgjsText1047" font-family="微软雅黑" text-anchor="middle" font-size="13px" width="13px" fill="#323232" font-weight="400" align="top" lineHeight="16px" anchor="middle" family="微软雅黑" size="13px" weight="400" font-style="" opacity="1" y="123.875" transform="rotate(0)"><tspan id="SvgjsTspan1048" dy="16" x="277.5"><tspan id="SvgjsTspan1049" style="text-decoration:;">否</tspan></tspan></text></g><g id="SvgjsG1050" transform="translate(197,162)"><path id="SvgjsPath1051" d="M 0 40L 80.5 0L 161 40L 80.5 80L 0 40Z" stroke="rgba(50,50,50,1)" stroke-width="2" fill-opacity="1" fill="#ffffff"></path><g id="SvgjsG1052"><text id="SvgjsText1053" font-family="微软雅黑" text-anchor="middle" font-size="13px" width="141px" fill="#323232" font-weight="400" align="middle" lineHeight="125%" anchor="middle" family="微软雅黑" size="13px" weight="400" font-style="" opacity="1" y="14.375" transform="rotate(0)"><tspan id="SvgjsTspan1054" dy="16" x="80.5"><tspan id="SvgjsTspan1055" style="text-decoration:;">检查</tspan></tspan><tspan id="SvgjsTspan1056" dy="16" x="80.5"><tspan id="SvgjsTspan1057" style="text-decoration:;">本地NuGet缓存</tspan></tspan><tspan id="SvgjsTspan1058" dy="16" x="80.5"><tspan id="SvgjsTspan1059" style="text-decoration:;">是否包含P包</tspan></tspan></text></g></g><g id="SvgjsG1060" transform="translate(448,177)"><path id="SvgjsPath1061" d="M 16.666666666666668 0L 83.33333333333333 0C 105.55555555555556 0 105.55555555555556 50 83.33333333333333 50L 16.666666666666668 50C -5.555555555555556 50 -5.555555555555556 0 16.666666666666668 0Z" stroke="rgba(50,50,50,1)" stroke-width="2" fill-opacity="1" fill="#ffffff"></path><g id="SvgjsG1062"><text id="SvgjsText1063" font-family="微软雅黑" text-anchor="middle" font-size="13px" width="80px" fill="#323232" font-weight="400" align="middle" lineHeight="125%" anchor="middle" family="微软雅黑" size="13px" weight="400" font-style="" opacity="1" y="15.375" transform="rotate(0)"><tspan id="SvgjsTspan1064" dy="16" x="50"><tspan id="SvgjsTspan1065" style="text-decoration:;">从本地还原</tspan></tspan></text></g></g><g id="SvgjsG1066"><path id="SvgjsPath1067" d="M358 202L403 202L403 202L448 202" stroke="#323232" stroke-width="2" fill="none" marker-end="url(#SvgjsMarker1068)"></path><rect id="SvgjsRect1070" width="13" height="16" x="396.5" y="194" fill="#ffffff"></rect><text id="SvgjsText1071" font-family="微软雅黑" text-anchor="middle" font-size="13px" width="13px" fill="#323232" font-weight="400" align="top" lineHeight="16px" anchor="middle" family="微软雅黑" size="13px" weight="400" font-style="" opacity="1" y="192.375" transform="rotate(0)"><tspan id="SvgjsTspan1072" dy="16" x="403"><tspan id="SvgjsTspan1073" style="text-decoration:;">是</tspan></tspan></text></g><g id="SvgjsG1074" transform="translate(448,277)"><path id="SvgjsPath1075" d="M 16.666666666666668 0L 83.33333333333333 0C 105.55555555555556 0 105.55555555555556 50 83.33333333333333 50L 16.666666666666668 50C -5.555555555555556 50 -5.555555555555556 0 16.666666666666668 0Z" stroke="rgba(50,50,50,1)" stroke-width="2" fill-opacity="1" fill="#ffffff"></path><g id="SvgjsG1076"><text id="SvgjsText1077" font-family="微软雅黑" text-anchor="middle" font-size="13px" width="80px" fill="#323232" font-weight="400" align="middle" lineHeight="125%" anchor="middle" family="微软雅黑" size="13px" weight="400" font-style="" opacity="1" y="15.375" transform="rotate(0)"><tspan id="SvgjsTspan1078" dy="16" x="50"><tspan id="SvgjsTspan1079" style="text-decoration:;">从远端还原</tspan></tspan></text></g></g><g id="SvgjsG1080"><path id="SvgjsPath1081" d="M277.5 242L277.5 302L448 302" stroke="#323232" stroke-width="2" fill="none" marker-end="url(#SvgjsMarker1082)"></path><rect id="SvgjsRect1084" width="13" height="16" x="326.25" y="294" fill="#ffffff"></rect><text id="SvgjsText1085" font-family="微软雅黑" text-anchor="middle" font-size="13px" width="13px" fill="#323232" font-weight="400" align="top" lineHeight="16px" anchor="middle" family="微软雅黑" size="13px" weight="400" font-style="" opacity="1" y="292.375" transform="rotate(0)"><tspan id="SvgjsTspan1086" dy="16" x="332.75"><tspan id="SvgjsTspan1087" style="text-decoration:;">否</tspan></tspan></text></g></svg>