ply
format ascii 1.0
comment PCL generated
element vertex 100
property float x
property float y
property float z
property uchar red
property uchar green
property uchar blue
property float nx
property float ny
property float nz
property float curvature
element camera 1
property float view_px
property float view_py
property float view_pz
property float x_axisx
property float x_axisy
property float x_axisz
property float y_axisx
property float y_axisy
property float y_axisz
property float z_axisx
property float z_axisy
property float z_axisz
property float focal
property float scalex
property float scaley
property float centerx
property float centery
property int viewportx
property int viewporty
property float k1
property float k2
end_header
-45 1 -45 0 255 0 0 1 0 0
-35 1 -45 0 255 0 0 1 0 0
-25 1 -45 0 255 0 0 1 0 0
-15 1 -45 0 255 0 0 1 0 0
-5 1 -45 0 255 0 0 1 0 0
5 1 -45 0 255 0 0 1 0 0
15 1 -45 0 255 0 0 1 0 0
25 1 -45 0 255 0 0 1 0 0
35 1 -45 0 255 0 0 1 0 0
45 1 -45 0 255 0 0 1 0 0
-45 1 -35 255 0 0 0 1 0 0
-35 1 -35 255 0 0 0 1 0 0
-25 1 -35 255 0 0 0 1 0 0
-15 1 -35 255 0 0 0 1 0 0
-5 1 -35 255 0 0 0 1 0 0
5 1 -35 255 0 0 0 1 0 0
15 1 -35 255 0 0 0 1 0 0
25 1 -35 255 0 0 0 1 0 0
35 1 -35 255 0 0 0 1 0 0
45 1 -35 255 0 0 0 1 0 0
-45 1 -25 0 255 0 0 1 0 0
-35 1 -25 0 255 0 0 1 0 0
-25 1 -25 0 255 0 0 1 0 0
-15 1 -25 0 255 0 0 1 0 0
-5 1 -25 0 255 0 0 1 0 0
5 1 -25 0 255 0 0 1 0 0
15 1 -25 0 255 0 0 1 0 0
25 1 -25 0 255 0 0 1 0 0
35 1 -25 0 255 0 0 1 0 0
45 1 -25 0 255 0 0 1 0 0
-45 1 -15 255 0 0 0 1 0 0
-35 1 -15 255 0 0 0 1 0 0
-25 1 -15 255 0 0 0 1 0 0
-15 1 -15 255 0 0 0 1 0 0
-5 1 -15 255 0 0 0 1 0 0
5 1 -15 255 0 0 0 1 0 0
15 1 -15 255 0 0 0 1 0 0
25 1 -15 255 0 0 0 1 0 0
35 1 -15 255 0 0 0 1 0 0
45 1 -15 255 0 0 0 1 0 0
-45 1 -5 0 255 0 0 1 0 0
-35 1 -5 0 255 0 0 1 0 0
-25 1 -5 0 255 0 0 1 0 0
-15 1 -5 0 255 0 0 1 0 0
-5 1 -5 0 255 0 0 1 0 0
5 1 -5 0 255 0 0 1 0 0
15 1 -5 0 255 0 0 1 0 0
25 1 -5 0 255 0 0 1 0 0
35 1 -5 0 255 0 0 1 0 0
45 1 -5 0 255 0 0 1 0 0
-45 1 5 255 0 0 0 1 0 0
-35 1 5 255 0 0 0 1 0 0
-25 1 5 255 0 0 0 1 0 0
-15 1 5 255 0 0 0 1 0 0
-5 1 5 255 0 0 0 1 0 0
5 1 5 255 0 0 0 1 0 0
15 1 5 255 0 0 0 1 0 0
25 1 5 255 0 0 0 1 0 0
35 1 5 255 0 0 0 1 0 0
45 1 5 255 0 0 0 1 0 0
-45 1 15 0 255 0 0 1 0 0
-35 1 15 0 255 0 0 1 0 0
-25 1 15 0 255 0 0 1 0 0
-15 1 15 0 255 0 0 1 0 0
-5 1 15 0 255 0 0 1 0 0
5 1 15 0 255 0 0 1 0 0
15 1 15 0 255 0 0 1 0 0
25 1 15 0 255 0 0 1 0 0
35 1 15 0 255 0 0 1 0 0
45 1 15 0 255 0 0 1 0 0
-45 1 25 255 0 0 0 1 0 0
-35 1 25 255 0 0 0 1 0 0
-25 1 25 255 0 0 0 1 0 0
-15 1 25 255 0 0 0 1 0 0
-5 1 25 255 0 0 0 1 0 0
5 1 25 255 0 0 0 1 0 0
15 1 25 255 0 0 0 1 0 0
25 1 25 255 0 0 0 1 0 0
35 1 25 255 0 0 0 1 0 0
45 1 25 255 0 0 0 1 0 0
-45 1 35 0 255 0 0 1 0 0
-35 1 35 0 255 0 0 1 0 0
-25 1 35 0 255 0 0 1 0 0
-15 1 35 0 255 0 0 1 0 0
-5 1 35 0 255 0 0 1 0 0
5 1 35 0 255 0 0 1 0 0
15 1 35 0 255 0 0 1 0 0
25 1 35 0 255 0 0 1 0 0
35 1 35 0 255 0 0 1 0 0
45 1 35 0 255 0 0 1 0 0
-45 1 45 255 0 0 0 1 0 0
-35 1 45 255 0 0 0 1 0 0
-25 1 45 255 0 0 0 1 0 0
-15 1 45 255 0 0 0 1 0 0
-5 1 45 255 0 0 0 1 0 0
5 1 45 255 0 0 0 1 0 0
15 1 45 255 0 0 0 1 0 0
25 1 45 255 0 0 0 1 0 0
35 1 45 255 0 0 0 1 0 0
45 1 45 255 0 0 0 1 0 0
0 0 0 1 0 0 0 1 0 0 0 1 0 0 0 0 0 100 1 0 0
