ply
format ascii 1.0
comment PCL generated
obj_info Generated by CloudCompare!
element vertex 5
property float x
property float y
property float z
property uchar red
property uchar green
property uchar blue
property float nx
property float ny
property float nz
end_header
48.0000 2.0000 48.0000 255 0 0 0.0000 1.0000 0.0000
47.0000 3.0000 48.0000 255 0 0 0.0000 1.0000 0.0000
48.0000 2.0000 47.0000 255 0 0 0.0000 1.0000 0.0000
1.0000 2.0000 1.0000 255 0 0 0.0000 1.0000 0.0000
1.0000 -2.0000 1.0000 255 0 0 0.0000 1.0000 0.0000